<?xml version="1.0" encoding="UTF-8"?>
<svg version="1.1" xmlns="http://www.w3.org/2000/svg" width="48" height="48">
<path d="M0 0 C6.68628655 -0.32122729 10.98921447 -0.14850671 17 3 C19.7004039 2.35336433 19.7004039 2.35336433 22 1 C25.14930893 -0.04976964 27.38814456 -0.10131595 30.6875 -0.0625 C31.68136719 -0.05347656 32.67523438 -0.04445313 33.69921875 -0.03515625 C34.83810547 -0.01775391 34.83810547 -0.01775391 36 0 C36 1.65 36 3.3 36 5 C37.65 5 39.3 5 41 5 C41 14.24 41 23.48 41 33 C33.3125 33.875 33.3125 33.875 30.91918945 34.13623047 C26.95131749 34.6108299 23.70352123 35.43002904 20 37 C16.62510726 36.70000953 13.58381113 35.88713522 10.3125 35 C4.94147921 33.65095882 4.94147921 33.65095882 -5 33 C-5 23.76 -5 14.52 -5 5 C-3.35 5 -1.7 5 0 5 C0 3.35 0 1.7 0 0 Z M-2 7 C-3.23921211 8.01636977 -3.23921211 8.01636977 -3.11352539 10.13305664 C-3.10828857 11.04949951 -3.10305176 11.96594238 -3.09765625 12.91015625 C-3.09443359 13.89951172 -3.09121094 14.88886719 -3.08789062 15.90820312 C-3.07951172 16.94912109 -3.07113281 17.99003906 -3.0625 19.0625 C-3.05798828 20.10728516 -3.05347656 21.15207031 -3.04882812 22.22851562 C-3.03699913 24.8190666 -3.02051689 27.40950559 -3 30 C-1.97519531 30.13277344 -0.95039062 30.26554687 0.10546875 30.40234375 C1.4661574 30.58064088 2.82683385 30.75903123 4.1875 30.9375 C4.86103516 31.02451172 5.53457031 31.11152344 6.22851562 31.20117188 C9.85081166 31.67825477 13.42803585 32.23012035 17 33 C14.4154209 29.71299174 11.98000749 29.38719426 7.9375 28.8125 C6.34228516 28.57466797 6.34228516 28.57466797 4.71484375 28.33203125 C2.12497742 27.95953413 2.12497742 27.95953413 0 28 C0 21.07 0 14.14 0 7 C-0.66 7 -1.32 7 -2 7 Z M36 7 C36 13.93 36 20.86 36 28 C33.463125 28.1546875 33.463125 28.1546875 30.875 28.3125 C26.17202368 28.72514824 22.98866664 29.52055857 19 32 C21.176256 33.35929107 21.176256 33.35929107 24.5 32.125 C29 31 29 31 39 30 C39 22.74 39 15.48 39 8 C38.01 7.67 37.02 7.34 36 7 Z " fill="#E69B6A" transform="translate(6,6)"/>
<path d="M0 0 C11 0 11 0 17 3 C17 12.57 17 22.14 17 32 C15.02 31.34 13.04 30.68 11 30 C9.42382965 29.75960924 7.83918742 29.56627898 6.25 29.4375 C2.2 29.1 2.2 29.1 0 28 C0 18.76 0 9.52 0 0 Z " fill="#FCA56C" transform="translate(6,6)"/>
<path d="M0 0 C1.98 0 3.96 0 6 0 C6 0.66 6 1.32 6 2 C5.01 2.33 4.02 2.66 3 3 C2.67 10.26 2.34 17.52 2 25 C5.3 25 8.6 25 12 25 C15.25 25.76171875 15.25 25.76171875 18 26.6875 C23.20185693 28.12433005 26.32899931 27.90114865 31.2578125 25.76171875 C34 25 34 25 44 25 C43.67 17.74 43.34 10.48 43 3 C42.01 2.67 41.02 2.34 40 2 C40 1.34 40 0.68 40 0 C41.98 0 43.96 0 46 0 C46 9.24 46 18.48 46 28 C38.3125 28.875 38.3125 28.875 35.91918945 29.13623047 C31.95131749 29.6108299 28.70352123 30.43002904 25 32 C21.62510726 31.70000953 18.58381113 30.88713522 15.3125 30 C9.94147921 28.65095882 9.94147921 28.65095882 0 28 C0 18.76 0 9.52 0 0 Z " fill="#324560" transform="translate(1,11)"/>
</svg>
